<svg width="1024" height="1024" viewBox="0 0 1024 1024" fill="none" xmlns="http://www.w3.org/2000/svg">
<g clip-path="url(#clip0_20_30)">
<path d="M800 0H224C100.288 0 0 100.288 0 224V800C0 923.712 100.288 1024 224 1024H800C923.712 1024 1024 923.712 1024 800V224C1024 100.288 923.712 0 800 0Z" fill="url(#paint0_linear_20_30)"/>
<path d="M247.505 365.684H173.39C168.756 365.684 165 369.441 165 374.074V448.189C165 452.823 168.756 456.579 173.39 456.579H247.505C252.139 456.579 255.895 452.823 255.895 448.189V374.074C255.895 369.441 252.139 365.684 247.505 365.684Z" fill="white"/>
<path d="M348.189 365.684H274.074C269.441 365.684 265.684 369.441 265.684 374.074V448.189C265.684 452.823 269.441 456.579 274.074 456.579H348.189C352.823 456.579 356.579 452.823 356.579 448.189V374.074C356.579 369.441 352.823 365.684 348.189 365.684Z" fill="white"/>
<path d="M448.873 365.684H374.759C370.125 365.684 366.368 369.441 366.368 374.074V448.189C366.368 452.823 370.125 456.579 374.759 456.579H448.873C453.507 456.579 457.264 452.823 457.264 448.189V374.074C457.264 369.441 453.507 365.684 448.873 365.684Z" fill="white"/>
<path d="M549.557 365.684H475.443C470.809 365.684 467.052 369.441 467.052 374.074V448.189C467.052 452.823 470.809 456.579 475.443 456.579H549.557C554.191 456.579 557.948 452.823 557.948 448.189V374.074C557.948 369.441 554.191 365.684 549.557 365.684Z" fill="white"/>
<path d="M650.241 365.684H576.127C571.493 365.684 567.736 369.441 567.736 374.074V448.189C567.736 452.823 571.493 456.579 576.127 456.579H650.241C654.875 456.579 658.632 452.823 658.632 448.189V374.074C658.632 369.441 654.875 365.684 650.241 365.684Z" fill="white"/>
<path d="M247.505 466.368H173.39C168.756 466.368 165 470.125 165 474.759V548.873C165 553.507 168.756 557.264 173.39 557.264H247.505C252.139 557.264 255.895 553.507 255.895 548.873V474.759C255.895 470.125 252.139 466.368 247.505 466.368Z" fill="#34D399"/>
<path d="M348.189 466.368H274.074C269.441 466.368 265.684 470.125 265.684 474.759V548.873C265.684 553.507 269.441 557.264 274.074 557.264H348.189C352.823 557.264 356.579 553.507 356.579 548.873V474.759C356.579 470.125 352.823 466.368 348.189 466.368Z" fill="#34D399"/>
<path d="M448.873 466.368H374.759C370.125 466.368 366.368 470.125 366.368 474.759V548.873C366.368 553.507 370.125 557.264 374.759 557.264H448.873C453.507 557.264 457.264 553.507 457.264 548.873V474.759C457.264 470.125 453.507 466.368 448.873 466.368Z" fill="#34D399"/>
<path d="M549.557 466.368H475.443C470.809 466.368 467.052 470.125 467.052 474.759V548.873C467.052 553.507 470.809 557.264 475.443 557.264H549.557C554.191 557.264 557.948 553.507 557.948 548.873V474.759C557.948 470.125 554.191 466.368 549.557 466.368Z" fill="#34D399"/>
<path d="M650.241 466.368H576.127C571.493 466.368 567.736 470.125 567.736 474.759V548.873C567.736 553.507 571.493 557.264 576.127 557.264H650.241C654.875 557.264 658.632 553.507 658.632 548.873V474.759C658.632 470.125 654.875 466.368 650.241 466.368Z" fill="#34D399"/>
<path d="M750.925 466.368H676.811C672.177 466.368 668.42 470.125 668.42 474.759V548.873C668.42 553.507 672.177 557.264 676.811 557.264H750.925C755.559 557.264 759.316 553.507 759.316 548.873V474.759C759.316 470.125 755.559 466.368 750.925 466.368Z" fill="#34D399"/>
<path d="M247.505 567.052H173.39C168.756 567.052 165 570.809 165 575.443V649.557C165 654.191 168.756 657.948 173.39 657.948H247.505C252.139 657.948 255.895 654.191 255.895 649.557V575.443C255.895 570.809 252.139 567.052 247.505 567.052Z" fill="white"/>
<path d="M348.189 567.052H274.074C269.441 567.052 265.684 570.809 265.684 575.443V649.557C265.684 654.191 269.441 657.948 274.074 657.948H348.189C352.823 657.948 356.579 654.191 356.579 649.557V575.443C356.579 570.809 352.823 567.052 348.189 567.052Z" fill="white"/>
<path d="M448.873 567.052H374.759C370.125 567.052 366.368 570.809 366.368 575.443V649.557C366.368 654.191 370.125 657.948 374.759 657.948H448.873C453.507 657.948 457.264 654.191 457.264 649.557V575.443C457.264 570.809 453.507 567.052 448.873 567.052Z" fill="white"/>
<path d="M549.557 567.052H475.443C470.809 567.052 467.052 570.809 467.052 575.443V649.557C467.052 654.191 470.809 657.948 475.443 657.948H549.557C554.191 657.948 557.948 654.191 557.948 649.557V575.443C557.948 570.809 554.191 567.052 549.557 567.052Z" fill="white"/>
<path d="M650.241 567.052H576.127C571.493 567.052 567.736 570.809 567.736 575.443V649.557C567.736 654.191 571.493 657.948 576.127 657.948H650.241C654.875 657.948 658.632 654.191 658.632 649.557V575.443C658.632 570.809 654.875 567.052 650.241 567.052Z" fill="white"/>
<path d="M549.557 265H475.443C470.809 265 467.052 268.756 467.052 273.39V347.505C467.052 352.139 470.809 355.895 475.443 355.895H549.557C554.191 355.895 557.948 352.139 557.948 347.505V273.39C557.948 268.756 554.191 265 549.557 265Z" fill="white"/>
<path d="M650.241 265H576.127C571.493 265 567.736 268.756 567.736 273.39V347.505C567.736 352.139 571.493 355.895 576.127 355.895H650.241C654.875 355.895 658.632 352.139 658.632 347.505V273.39C658.632 268.756 654.875 265 650.241 265Z" fill="white"/>
<path d="M750.925 365.684H676.811C672.177 365.684 668.42 369.441 668.42 374.074V448.189C668.42 452.823 672.177 456.579 676.811 456.579H750.925C755.559 456.579 759.316 452.823 759.316 448.189V374.074C759.316 369.441 755.559 365.684 750.925 365.684Z" fill="white"/>
<path d="M750.925 567.052H676.811C672.177 567.052 668.42 570.809 668.42 575.443V649.557C668.42 654.191 672.177 657.948 676.811 657.948H750.925C755.559 657.948 759.316 654.191 759.316 649.557V575.443C759.316 570.809 755.559 567.052 750.925 567.052Z" fill="white"/>
<path d="M650.241 667.736H576.127C571.493 667.736 567.736 671.493 567.736 676.127V750.241C567.736 754.875 571.493 758.632 576.127 758.632H650.241C654.875 758.632 658.632 754.875 658.632 750.241V676.127C658.632 671.493 654.875 667.736 650.241 667.736Z" fill="white"/>
<path d="M549.557 667.736H475.443C470.809 667.736 467.052 671.493 467.052 676.127V750.241C467.052 754.875 470.809 758.632 475.443 758.632H549.557C554.191 758.632 557.948 754.875 557.948 750.241V676.127C557.948 671.493 554.191 667.736 549.557 667.736Z" fill="white"/>
<path d="M851.61 466.368H777.495C772.861 466.368 769.104 470.125 769.104 474.759V548.873C769.104 553.507 772.861 557.264 777.495 557.264H851.61C856.243 557.264 860 553.507 860 548.873V474.759C860 470.125 856.243 466.368 851.61 466.368Z" fill="white"/>
</g>
<defs>
<linearGradient id="paint0_linear_20_30" x1="0" y1="0" x2="1024" y2="1024" gradientUnits="userSpaceOnUse">
<stop stop-color="#1E3A5F"/>
<stop offset="1" stop-color="#0A1628"/>
</linearGradient>
<clipPath id="clip0_20_30">
<rect width="1024" height="1024" fill="white"/>
</clipPath>
</defs>
</svg>
