<svg xmlns="http://www.w3.org/2000/svg" viewBox="0 0 1418 1418">
<defs><linearGradient gradientUnits="userSpaceOnUse" id="bg" x1="0" y1="0" x2="1418" y2="1418"><stop offset="0%" stop-color="#1E3A5F"/><stop offset="30%" stop-color="#1E3A5F"/><stop offset="70%" stop-color="#115E59"/><stop offset="100%" stop-color="#0F766E"/></linearGradient></defs>
<rect width="1418" height="1418" fill="url(#bg)"/>
<path d="M1088.66 772.829C1175.9 860.068 1175.9 1001.51 1088.66 1088.75C1001.42 1175.99 859.982 1175.99 772.744 1088.75L733.75 1049.75L810.805 972.699L849.798 1011.69C894.481 1056.37 966.925 1056.37 1011.61 1011.69C1056.29 967.01 1056.29 894.566 1011.61 849.884L872.425 710.702L733.243 571.52L810.298 494.465L1088.66 772.829ZM329.519 329.605C416.758 242.367 558.199 242.367 645.438 329.605L684.933 369.101L607.879 446.156L568.383 406.661C523.701 361.979 451.257 361.979 406.575 406.661C361.893 451.343 361.893 523.787 406.575 568.469L683.831 845.725L606.776 922.78L329.519 645.524C242.281 558.285 242.281 416.843 329.519 329.605Z" fill="white"/>
<path d="M924.091 809.942L645.267 1088.77C558.068 1175.98 416.69 1175.98 329.49 1088.77C242.291 1001.57 242.291 860.189 329.49 772.987L368.969 733.341L445.991 810.365L406.512 850.011C361.851 894.674 361.851 967.087 406.512 1011.75C451.174 1056.41 523.584 1056.41 568.245 1011.75L847.069 732.917L924.091 809.942Z" fill="#34D399"/>
<path d="M815.998 441.204L806.46 450.106C805.899 450.63 805.345 451.165 804.798 451.712L571.297 685.222L494.274 608.197L684.081 418.384L739.352 363.459L815.998 441.204Z" fill="#34D399"/>
<path d="M886.165 264.177C902.075 264.177 914.973 277.075 914.973 292.986V422.697C914.973 448.398 883.871 461.236 865.743 443.018L736.682 313.306C718.604 295.137 731.473 264.177 757.103 264.177H886.165Z" fill="#34D399"/>
</svg>
