<svg width="200" height="200" viewBox="0 0 200 200" xmlns="http://www.w3.org/2000/svg">
  
  
  
  
  <g transform="translate(10 10)">
    
    <rect x="20" y="60" width="18" height="18" fill="#1E3A5F" rx="1"></rect>
    <rect x="40" y="60" width="18" height="18" fill="#1E3A5F" rx="1"></rect>
    <rect x="60" y="60" width="18" height="18" fill="#1E3A5F" rx="1"></rect>
    <rect x="80" y="60" width="18" height="18" fill="#1E3A5F" rx="1"></rect>
    <rect x="100" y="60" width="18" height="18" fill="#1E3A5F" rx="1"></rect>
    
    <rect x="20" y="80" width="18" height="18" fill="#34D399" rx="1"></rect>
    <rect x="40" y="80" width="18" height="18" fill="#34D399" rx="1"></rect>
    <rect x="60" y="80" width="18" height="18" fill="#34D399" rx="1"></rect>
    <rect x="80" y="80" width="18" height="18" fill="#34D399" rx="1"></rect>
    <rect x="100" y="80" width="18" height="18" fill="#34D399" rx="1"></rect>
    <rect x="120" y="80" width="18" height="18" fill="#34D399" rx="1"></rect>
    
    <rect x="20" y="100" width="18" height="18" fill="#1E3A5F" rx="1"></rect>
    <rect x="40" y="100" width="18" height="18" fill="#1E3A5F" rx="1"></rect>
    <rect x="60" y="100" width="18" height="18" fill="#1E3A5F" rx="1"></rect>
    <rect x="80" y="100" width="18" height="18" fill="#1E3A5F" rx="1"></rect>
    <rect x="100" y="100" width="18" height="18" fill="#1E3A5F" rx="1"></rect>
    
    <rect x="80" y="40" width="18" height="18" fill="#1E3A5F" rx="1"></rect>
    <rect x="100" y="40" width="18" height="18" fill="#1E3A5F" rx="1"></rect>
    <rect x="120" y="60" width="18" height="18" fill="#1E3A5F" rx="1"></rect>
    <rect x="120" y="100" width="18" height="18" fill="#1E3A5F" rx="1"></rect>
    <rect x="100" y="120" width="18" height="18" fill="#1E3A5F" rx="1"></rect>
    <rect x="80" y="120" width="18" height="18" fill="#1E3A5F" rx="1"></rect>
    
    <rect x="140" y="80" width="18" height="18" fill="#0F766E" rx="1"></rect>
  </g>
</svg>